<?xml version="1.0" encoding="UTF-8" standalone="no"?>
<svg
   xmlns:dc="http://purl.org/dc/elements/1.1/"
   xmlns:cc="http://creativecommons.org/ns#"
   xmlns:rdf="http://www.w3.org/1999/02/22-rdf-syntax-ns#"
   xmlns:svg="http://www.w3.org/2000/svg"
   xmlns="http://www.w3.org/2000/svg"
   xmlns:sodipodi="http://sodipodi.sourceforge.net/DTD/sodipodi-0.dtd"
   xmlns:inkscape="http://www.inkscape.org/namespaces/inkscape"
   id="svg865"
   version="1.1"
   viewBox="0 0 24 24"
   height="24"
   width="24"
   sodipodi:docname="license-buy.svg"
   inkscape:version="0.92.3 (2405546, 2018-03-11)">
  <sodipodi:namedview
     pagecolor="#ffffff"
     bordercolor="#666666"
     borderopacity="1"
     objecttolerance="10"
     gridtolerance="10"
     guidetolerance="10"
     inkscape:pageopacity="0"
     inkscape:pageshadow="2"
     inkscape:window-width="1920"
     inkscape:window-height="1017"
     id="namedview820"
     showgrid="false"
     inkscape:zoom="8.6875"
     inkscape:cx="21.732829"
     inkscape:cy="25.819328"
     inkscape:window-x="0"
     inkscape:window-y="30"
     inkscape:window-maximized="1"
     inkscape:current-layer="svg865"
     fit-margin-top="0"
     fit-margin-left="0"
     fit-margin-right="0"
     fit-margin-bottom="0" />
  <metadata
     id="metadata871">
    <rdf:RDF>
      <cc:Work
         rdf:about="">
        <dc:format>image/svg+xml</dc:format>
        <dc:type
           rdf:resource="http://purl.org/dc/dcmitype/StillImage" />
        <dc:title></dc:title>
      </cc:Work>
    </rdf:RDF>
  </metadata>
  <defs
     id="defs869" />
  <path
     style="stroke-width:0.99999994"
     d="m 13.636719,9.3029282e-7 c -1.188,0 -0.79343,-0.0163900002928 -9.5654287,4.47460896970718 -1.234,0.591 -2.0498046,1.787148 -2.0498046,3.202148 0,0.87 0.3076719,1.756305 0.8886718,2.4873051 1.427,1.794 7.5612105,9.184836 7.6162105,9.256836 0.371,0.493 0.426414,1.118851 0.149414,1.672851 -0.277,0.555 -0.8117107,0.886719 -1.4287107,0.886719 -0.919,0 -1.407828,-0.655797 -1.548828,-1.216797 -0.156,-0.629 0.01151,-1.20732 0.603516,-1.65332 L 7.025392,17.56543 C 6.2033918,18.23043 5.7484386,19.060836 5.6484387,20.006836 5.4164387,22.211836 7.17372,24 9.2617203,24 c 0.596,0 1.3108187,-0.176765 1.8408187,-0.509765 l 5.394531,-3.403321 a 5.0935253,5.0935253 0 0 1 -1.96582,-1.148437 c -0.631084,0.397978 -1.408109,0.88975 -1.683594,1.063476 -0.074,-0.721 -0.358172,-1.391242 -0.826171,-1.948242 -0.469001,-0.557 -6.115437,-7.375734 -7.5234369,-9.1777341 -0.469,-0.601 -0.5749219,-1.246383 -0.2949218,-1.817383 0.2679999,-0.549 0.8416873,-0.917968 1.4296874,-0.917968 0.9189999,0 1.4088048,0.65582 1.5498048,1.21582 0.1599998,0.641 -0.035045,1.23057 -0.623047,1.68457 L 7.8886733,10.66504 15.68457,6.2187509 c 1.422,-1.051 1.821687,-2.990696 0.929687,-4.512696 C 15.996257,0.65305493 14.855718,9.3029282e-7 13.636719,9.3029282e-7 Z M 13.650389,2.0175789 c 0.532,0 0.997164,0.280953 1.243163,0.751953 0.312,0.596 0.226149,1.469109 -0.547851,1.912109 l -5.0976527,2.888672 c -0.051,-1.089 -0.579078,-2.081422 -1.455078,-2.732422 l 5.2480457,-2.685546 c 0.188,-0.087 0.398375,-0.134766 0.609375,-0.134766 z m 3.085937,5.342773 -1.784179,1.017578 1.688476,1.9384771 a 5.0935253,5.0935253 0 0 1 1.366213,-0.186524 5.0935253,5.0935253 0 0 1 1.328125,0.182618 C 18.325331,9.1557209 17.267626,7.9592499 16.736328,7.3603519 Z m -2.651367,2.307617 -4.7499987,2.7773441 0.645508,0.78125 4.7724597,-2.791015 z m 3.921875,1.5839851 a 3.9712232,3.9712232 0 0 0 -3.97168,3.970702 3.9712232,3.9712232 0 0 0 3.97168,3.97168 3.9712232,3.9712232 0 0 0 3.97168,-3.97168 3.9712232,3.9712232 0 0 0 -3.97168,-3.970702 z m -4.356445,1.344726 -2.828125,1.652344 0.644531,0.78125 1.573243,-0.919922 a 5.0935253,5.0935253 0 0 1 0.610351,-1.513672 z m 2.663086,1.183594 h 3.386718 c 0.186997,0 0.338868,0.151871 0.338868,0.338867 v 0.338867 h -4.064453 v -0.338867 c 0,-0.186996 0.15187,-0.338867 0.338867,-0.338867 z m -0.338867,1.185547 h 4.064453 v 1.185546 c 0,0.186996 -0.151871,0.338868 -0.338868,0.338868 h -3.386718 c -0.186997,0 -0.338868,-0.151872 -0.338867,-0.338868 z m 0.507811,0.507812 v 0.169922 h 1.524415 v -0.169922 z m 2.541017,0 v 0.169922 h 0.507812 v -0.169922 z m -6.087891,0.191406 -0.636718,0.372071 0.645508,0.78125 0.194335,-0.113282 A 5.0935253,5.0935253 0 0 1 12.935545,15.665039 Z M 16.48242,15.8125 v 0.169922 h 1.016602 V 15.8125 Z"
     id="path863"
     inkscape:connector-curvature="0" />
</svg>
