<?xml version="1.0" encoding="UTF-8" standalone="no"?>
<svg
   xmlns:dc="http://purl.org/dc/elements/1.1/"
   xmlns:cc="http://creativecommons.org/ns#"
   xmlns:rdf="http://www.w3.org/1999/02/22-rdf-syntax-ns#"
   xmlns:svg="http://www.w3.org/2000/svg"
   xmlns="http://www.w3.org/2000/svg"
   xmlns:sodipodi="http://sodipodi.sourceforge.net/DTD/sodipodi-0.dtd"
   xmlns:inkscape="http://www.inkscape.org/namespaces/inkscape"
   id="svg865"
   version="1.1"
   viewBox="0 0 24 24"
   height="24"
   width="24"
   sodipodi:docname="license-recurring.svg"
   inkscape:version="0.92.3 (2405546, 2018-03-11)">
  <sodipodi:namedview
     pagecolor="#ffffff"
     bordercolor="#666666"
     borderopacity="1"
     objecttolerance="10"
     gridtolerance="10"
     guidetolerance="10"
     inkscape:pageopacity="0"
     inkscape:pageshadow="2"
     inkscape:window-width="1920"
     inkscape:window-height="1017"
     id="namedview1583"
     showgrid="false"
     inkscape:zoom="9.8333333"
     inkscape:cx="11.898305"
     inkscape:cy="12"
     inkscape:window-x="0"
     inkscape:window-y="30"
     inkscape:window-maximized="1"
     inkscape:current-layer="svg865" />
  <metadata
     id="metadata871">
    <rdf:RDF>
      <cc:Work
         rdf:about="">
        <dc:format>image/svg+xml</dc:format>
        <dc:type
           rdf:resource="http://purl.org/dc/dcmitype/StillImage" />
        <dc:title />
      </cc:Work>
    </rdf:RDF>
  </metadata>
  <defs
     id="defs869" />
  <path
     style="stroke-width:0.99999994"
     d="m 13.636719,9.3029282e-7 c -1.188,0 -0.793429,-0.0163900002928 -9.5654288,4.47460896970718 -1.2339999,0.591 -2.0498046,1.787148 -2.0498046,3.202148 0,0.87 0.3076719,1.756305 0.8886718,2.4873051 1.427,1.794 7.5612106,9.184836 7.6162106,9.256836 0.371,0.493 0.426414,1.118851 0.149414,1.672851 -0.277,0.555 -0.8117107,0.886719 -1.4287107,0.886719 -0.919,0 -1.4078281,-0.655797 -1.5488281,-1.216797 -0.156,-0.629 0.011516,-1.20732 0.6035156,-1.65332 L 7.0253917,17.56543 c -0.822,0.665 -1.2769532,1.495406 -1.3769531,2.441406 C 5.4164386,22.211836 7.1737198,24 9.2617197,24 9.8577193,24 10.57254,23.823235 11.10254,23.490235 l 5.39453,-3.403321 a 5.0935253,5.0935253 0 0 1 -1.965819,-1.148437 c -0.631085,0.397978 -1.40811,0.88975 -1.683594,1.063476 -0.074,-0.721 -0.358172,-1.391242 -0.826172,-1.948242 -0.469,-0.557 -6.115437,-7.375734 -7.523437,-9.1777341 -0.469,-0.601 -0.5749219,-1.246383 -0.2949218,-1.817383 0.268,-0.549 0.8416873,-0.917968 1.4296874,-0.917968 0.9189999,0 1.4088046,0.65582 1.5498046,1.21582 0.16,0.641 -0.035047,1.23057 -0.6230468,1.68457 L 7.8886729,10.66504 15.684571,6.2187509 c 1.421999,-1.051 1.821687,-2.990696 0.929687,-4.512696 C 15.996258,0.65305493 14.855719,9.3029282e-7 13.636719,9.3029282e-7 Z M 13.650389,2.0175789 c 0.532,0 0.997164,0.280953 1.243164,0.751953 0.312,0.596 0.226149,1.469109 -0.547851,1.912109 l -5.0976542,2.888672 c -0.051,-1.089 -0.5790781,-2.081422 -1.4550781,-2.732422 l 5.2480463,-2.685546 c 0.188,-0.087 0.398375,-0.134766 0.609375,-0.134766 z m 3.085937,5.342773 -1.784179,1.017578 1.688476,1.9384771 a 5.0935253,5.0935253 0 0 1 1.366211,-0.186524 5.0935253,5.0935253 0 0 1 1.328125,0.182617 C 18.325332,9.1557209 17.267626,7.9592499 16.736328,7.3603519 Z m -2.651366,2.307617 -4.7500001,2.7773441 0.6455074,0.78125 4.7724607,-2.791016 z m 3.921874,1.5839841 a 3.9712232,3.9712232 0 0 0 -3.971679,3.970703 3.9712232,3.9712232 0 0 0 3.971679,3.97168 3.9712232,3.9712232 0 0 0 3.97168,-3.97168 3.9712232,3.9712232 0 0 0 -3.97168,-3.970703 z m -4.356445,1.344727 -2.828125,1.652344 0.644531,0.78125 1.573243,-0.919922 a 5.0935253,5.0935253 0 0 1 0.610351,-1.513672 z m 4.356445,0.888672 c 0.462344,0 0.880807,0.181974 1.192383,0.476562 l -0.386719,0.430664 c -0.208682,-0.202698 -0.492544,-0.328125 -0.805664,-0.328125 -0.638788,0 -1.158203,0.519416 -1.158203,1.158203 h 0.579102 l -0.861329,0.959961 -0.875976,-0.959961 h 0.579101 c 0,-0.959436 0.777869,-1.737304 1.737305,-1.737304 z m 1.44043,0.77832 0.875976,0.958984 h -0.579101 c 0,0.959437 -0.777868,1.737305 -1.737305,1.737305 -0.462344,0 -0.881,-0.180998 -1.192383,-0.475586 l 0.386719,-0.430664 c 0.208683,0.202505 0.492351,0.327149 0.805664,0.327149 0.638788,0 1.158203,-0.519416 1.158203,-1.158204 h -0.579101 z m -6.511719,1.401367 -0.636718,0.372071 0.645508,0.78125 0.194335,-0.113282 a 5.0935253,5.0935253 0 0 1 -0.203125,-1.040039 z"
     id="path863"
     inkscape:connector-curvature="0" />
</svg>
